:version 1.10
:name ASF
:units
  mass 1
  length 1
  angle deg
:documentation
  ASF file generated by Kaydara
:root
  axis xyz
  order  tx ty tz rx ry rz
  position 0 0 0
  orientation 0 0 0
:bonedata
  begin
    id 1
    name RightUpLegDummy
    direction -0.65628 -0.754516 0.00165102
    length 4.76918
    axis 0 0 0 xyz
  end
  begin
    id 2
    name RightUpLeg
    direction -0.145584 -0.923362 0.355256
    length 17.9961
    axis -24.7611 -13.1006 1.78531 xyz
    dof rx ry rz
  end
  begin
    id 3
    name RightLeg
    direction 0.263379 0.172355 -0.949171
    length 13.3386
    axis 89.6202 -21.1929 12.3855 xyz
    dof rx ry rz
  end
  begin
    id 4
    name RightFoot
    direction 0.224283 -0.968777 -0.105675
    length 5.86697
    axis 56.995 -39.6905 17.3365 xyz
    dof rx ry rz
  end
  begin
    id 5
    name RightToes
    direction -0.0806345 -0.9037 0.420506
    length 4.75197
    axis 146.825 -39.7828 17.6019 xyz
    dof rx ry rz
  end
  begin
    id 6
    name SpineDummy
    direction -3.39852e-014 1 9.33296e-014
    length 8.13779
    axis 0 0 0 xyz
  end
  begin
    id 7
    name Spine
    direction -0.156609 0.733703 0.661176
    length 7.14978
    axis 41.2365 5.68757 17.0844 xyz
    dof rx ry rz
  end
  begin
    id 8
    name Spine1
    direction 0 0 0
    length 0
    axis 42.8809 47.8308 -3.36039 xyz
    dof rx ry rz
  end
  begin
    id 9
    name HEadDummy
    direction 0.546431 0.701947 0.456819
    length 3.55512
    axis 42.8809 47.8308 -3.36039 xyz
  end
  begin
    id 10
    name HEad
    direction 0.23444 0.828559 0.508457
    length 7.35827
    axis 51.1864 49.2662 27.4903 xyz
    dof rx ry rz
  end
  begin
    id 11
    name LeftShoulder1Dummy
    direction 0.431183 0.475873 -0.766568
    length 2.49352
    axis 42.8809 47.8308 -3.36039 xyz
  end
  begin
    id 12
    name LeftShoulder1
    direction 0.268187 -0.383402 -0.883786
    length 4.48604
    axis -119.517 0.106469 35.1736 xyz
    dof rx ry rz
  end
  begin
    id 13
    name LeftArm
    direction 0.380567 -0.703221 -0.600541
    length 10.1142
    axis -5.41825 36.2925 7.8293 xyz
    dof rx ry rz
  end
  begin
    id 14
    name LeftForeArm
    direction 0.541071 -0.732356 -0.413396
    length 9.39839
    axis 4.65387 33.7604 7.81644 xyz
    dof rx ry rz
  end
  begin
    id 15
    name LeftHand
    direction 0.847511 -0.389379 -0.360707
    length 3.66142
    axis 7.65593 21.1436 -24.6758 xyz
    dof rx ry rz
  end
  begin
    id 16
    name RightShoulderDummy
    direction -0.692546 0.541855 0.476208
    length 2.49352
    axis 42.8809 47.8308 -3.36039 xyz
  end
  begin
    id 17
    name RightShoulder
    direction -0.870808 -0.316653 0.376065
    length 4.48602
    axis 141.571 51.133 -100.254 xyz
    dof rx ry rz
  end
  begin
    id 18
    name RightArm
    direction 0.366897 -0.87275 0.322015
    length 10.1142
    axis 92.3258 71.2036 138.917 xyz
    dof rx ry rz
  end
  begin
    id 19
    name RightForeArm
    direction 0.702487 -0.694568 0.155197
    length 9.39835
    axis 153.863 41.5092 -176.604 xyz
    dof rx ry rz
  end
  begin
    id 20
    name RightHand
    direction 0.79502 -0.601276 0.0800636
    length 3.66142
    axis 154.247 4.59222 142.9 xyz
    dof rx ry rz
  end
  begin
    id 21
    name LeftUpLegDummy
    direction 0.65628 -0.754516 0.00165102
    length 4.76919
    axis 0 0 0 xyz
  end
  begin
    id 22
    name LeftUpLeg
    direction -0.1277 -0.689368 0.713067
    length 17.9961
    axis -48.3385 -17.8675 0.791927 xyz
    dof rx ry rz
  end
  begin
    id 23
    name LeftLeg
    direction 0.109849 -0.991246 -0.0732378
    length 13.3386
    axis -2.05791 -7.30784 1.72042 xyz
    dof rx ry rz
  end
  begin
    id 24
    name LeftFoot
    direction 0.0448355 -0.272614 0.961078
    length 5.86697
    axis -18.7733 -7.89606 10.2113 xyz
    dof rx ry rz
  end
  begin
    id 25
    name LeftToes
    direction -0.18506 0.293668 0.937823
    length 4.75197
    axis 71.2267 -7.89606 10.2113 xyz
    dof rx ry rz
  end
:hierarchy
  begin
    root RightUpLegDummy SpineDummy LeftUpLegDummy
    RightUpLegDummy RightUpLeg
    RightUpLeg RightLeg
    RightLeg RightFoot
    RightFoot RightToes
    SpineDummy Spine
    Spine Spine1
    Spine1 HEadDummy LeftShoulder1Dummy RightShoulderDummy
    HEadDummy HEad
    LeftShoulder1Dummy LeftShoulder1
    LeftShoulder1 LeftArm
    LeftArm LeftForeArm
    LeftForeArm LeftHand
    RightShoulderDummy RightShoulder
    RightShoulder RightArm
    RightArm RightForeArm
    RightForeArm RightHand
    LeftUpLegDummy LeftUpLeg
    LeftUpLeg LeftLeg
    LeftLeg LeftFoot
    LeftFoot LeftToes
  end

:SAMPLES-PER-SECOND 30
:FULLY-SPECIFIED
:DEGREES
296
root  29.1928 32.4544 -8.82787 145.122 67.9332 165.283
RightUpLeg  17.8967 30.0192 -17.5992
RightLeg  -34.6473 -6.83125 -6.49364
RightFoot  24.5582 0.763087 -10.8317
RightToes  -1.27222e-014 -6.36111e-015 6.36111e-015
Spine  -27.7129 -20.7889 -18.3888
Spine1  9.04654 -15.2335 50.45
HEad  33.3203 31.6292 -11.2845
LeftShoulder1  6.36111e-015 -1.33558e-015 6.49777e-015
LeftArm  47.266 4.16471 -32.7024
LeftForeArm  -100.075 -38.8652 75.5941
LeftHand  -4.44671 -16.7381 -27.7593
RightShoulder  -4.77083e-015 -6.36111e-015 -3.18055e-015
RightArm  74.9798 -28.087 -32.0246
RightForeArm  -80.1787 10.3287 -57.2037
RightHand  -2.57244 5.47332 20.6636
LeftUpLeg  22.5636 14.4832 21.2041
LeftLeg  7.42119 -6.77181 -1.00674
LeftFoot  13.9275 7.01353 -16.1914
LeftToes  1.27222e-014 1.09105e-011 6.96064e-012
297
root  29.2515 31.6928 -10.2193 134.556 70.2815 156.492
RightUpLeg  9.93302 34.4296 -18.9798
RightLeg  -22.6618 -10.8374 -3.53954
RightFoot  25.1108 2.21814 -12.9885
RightToes  -1.27222e-014 -6.36111e-015 6.36111e-015
Spine  -26.8493 -19.8444 -18.337
Spine1  10.5383 -14.5905 46.7923
HEad  33.2598 33.6456 -10.8863
LeftShoulder1  6.36111e-015 -1.33558e-015 6.49777e-015
LeftArm  46.5579 4.86985 -31.4213
LeftForeArm  -100.494 -38.7352 73.8982
LeftHand  -4.4327 -17.0748 -28.5289
RightShoulder  -4.77083e-015 -6.36111e-015 -3.18055e-015
RightArm  67.4261 -27.6061 -30.0268
RightForeArm  -79.2376 10.6068 -57.4744
RightHand  -2.54598 6.7525 20.3784
LeftUpLeg  23.0634 17.7263 20.9716
LeftLeg  15.3519 -4.23951 -0.0187271
LeftFoot  9.6966 5.63911 -14.4477
LeftToes  1.27222e-014 1.09105e-011 6.96064e-012
298
root  29.1124 31.5296 -11.2703 133.929 67.5588 156.611
RightUpLeg  6.03749 31.7939 -18.5799
RightLeg  -13.3673 -12.9131 -2.6477
RightFoot  19.4185 1.48784 -10.5569
RightToes  -1.27222e-014 -6.36111e-015 6.36111e-015
Spine  -27.1809 -19.1682 -17.312
Spine1  11.8564 -14.479 45.0282
HEad  33.9409 33.3911 -11.4225
LeftShoulder1  6.36111e-015 -1.33558e-015 6.49777e-015
LeftArm  44.3715 5.13407 -32.4638
LeftForeArm  -97.3934 -40.6282 72.5227
LeftHand  -4.53403 -18.1825 -29.0295
RightShoulder  -4.77083e-015 -6.36111e-015 -3.18055e-015
RightArm  58.4253 -25.7471 -23.0928
RightForeArm  -75.978 12.1734 -63.8892
RightHand  -2.51515 8.74275 19.8873
LeftUpLeg  21.915 19.1224 15.0885
LeftLeg  16.9546 0.610274 2.22932
LeftFoot  6.79886 4.17366 -11.5471
LeftToes  1.27222e-014 1.09105e-011 6.96064e-012
299
root  28.7281 31.8498 -11.8779 138.814 60.4038 161.079
RightUpLeg  4.75847 24.3452 -16.1954
RightLeg  -8.28559 -11.4207 -2.50311
RightFoot  14.9457 0.13337 -7.02061
RightToes  -1.27222e-014 -6.36111e-015 6.36111e-015
Spine  -26.6596 -18.2029 -16.0134
Spine1  11.4168 -13.977 43.7508
HEad  34.7898 30.1599 -11.8529
LeftShoulder1  6.36111e-015 -1.33558e-015 6.49777e-015
LeftArm  41.0839 4.07809 -36.0998
LeftForeArm  -89.7745 -44.8306 69.2854
LeftHand  -4.65817 -18.4666 -28.0686
RightShoulder  -4.77083e-015 -6.36111e-015 -3.18055e-015
RightArm  50.9817 -23.0837 -14.6439
RightForeArm  -74.9395 13.0447 -72.0895
RightHand  -2.51438 9.87039 19.8405
LeftUpLeg  19.2047 19.3622 5.8901
LeftLeg  13.7566 2.81986 2.65109
LeftFoot  10.3054 3.32346 -8.43062
LeftToes  1.27222e-014 1.09105e-011 6.96064e-012
300
root  28.1049 32.5115 -11.8299 144.632 52.9716 163.751
RightUpLeg  1.36666 16.977 -9.32274
RightLeg  -8.40598 -9.67531 -2.56822
RightFoot  13.6012 -0.330065 -5.75504
RightToes  -1.27222e-014 -6.36111e-015 6.36111e-015
Spine  -26.8035 -15.4866 -14.0943
Spine1  10.9464 -11.8428 39.213
HEad  35.0323 24.5815 -12.0883
LeftShoulder1  6.36111e-015 -1.33558e-015 6.49777e-015
LeftArm  37.9059 0.395048 -40.569
LeftForeArm  -76.0227 -49.2559 57.1726
LeftHand  -4.65224 -16.6787 -24.9245
RightShoulder  -4.77083e-015 -6.36111e-015 -3.18055e-015
RightArm  45.5881 -21.0999 -6.51309
RightForeArm  -75.7056 12.5824 -77.4351
RightHand  -2.5168 10.0669 19.8979
LeftUpLeg  15.6763 20.6858 1.62018
LeftLeg  7.78399 -5.12777 -0.51726
LeftFoot  19.0296 4.99649 -10.3515
LeftToes  1.27222e-014 1.09105e-011 6.96064e-012
301
root  27.5086 33.2624 -11.2892 151.54 45.0225 166.286
RightUpLeg  -2.65402 12.1731 -0.00308359
RightLeg  -14.0716 -6.90329 -3.48913
RightFoot  12.1425 -0.749555 -4.4609
RightToes  -1.27222e-014 -6.36111e-015 6.36111e-015
Spine  -26.8511 -12.0974 -12.0375
Spine1  11.0408 -8.93921 33.7316
HEad  35.2967 17.6495 -12.3676
LeftShoulder1  6.36111e-015 -1.33558e-015 6.49777e-015
LeftArm  34.8944 -4.91163 -44.2482
LeftForeArm  -56.8557 -48.7736 36.2921
LeftHand  -4.5373 -14.3171 -19.9167
RightShoulder  -4.77083e-015 -6.36111e-015 -3.18055e-015
RightArm  41.5621 -19.1289 0.284496
RightForeArm  -75.1685 12.9217 -76.9768
RightHand  -2.46093 8.83375 18.763
LeftUpLeg  13.036 24.83 3.57213
LeftLeg  0.215584 -21.6503 -2.62864
LeftFoot  26.2375 12.0003 -21.146
LeftToes  1.27222e-014 1.09105e-011 6.96064e-012
302
root  27.0728 33.9229 -10.6661 156.75 32.2205 169.07
RightUpLeg  -4.26863 8.21803 4.62656
RightLeg  -24.66 -1.76036 -6.74399
RightFoot  12.0236 -2.18064 -1.92197
RightToes  -1.27222e-014 -6.36111e-015 6.36111e-015
Spine  -24.8176 -10.8712 -9.70029
Spine1  10.195 -8.24017 31.0138
HEad  35.5794 10.4824 -12.4619
LeftShoulder1  6.36111e-015 -1.33558e-015 6.49777e-015
LeftArm  31.3183 -9.05558 -45.8708
LeftForeArm  -41.6471 -43.8602 20.6527
LeftHand  -4.32169 -12.3928 -14.902
RightShoulder  -4.77083e-015 -6.36111e-015 -3.18055e-015
RightArm  39.0399 -16.374 3.33576
RightForeArm  -71.9091 14.6498 -71.207
RightHand  -2.26779 6.80562 16.1747
LeftUpLeg  12.2212 31.4411 5.17108
LeftLeg  -9.51573 -33.2437 0.571183
LeftFoot  27.3368 18.7298 -31.9104
LeftToes  1.27222e-014 1.09105e-011 6.96064e-012
303
root  26.6749 34.3876 -10.0375 158.039 16.8051 169.839
RightUpLeg  -3.07428 7.40711 3.77472
RightLeg  -37.4535 1.6719 -12.1798
RightFoot  15.1283 -2.88283 -2.13335
RightToes  -1.27222e-014 -6.36111e-015 6.36111e-015
Spine  -20.7509 -11.7689 -7.37334
Spine1  9.15249 -9.70465 29.8305
HEad  34.6779 4.27048 -12.352
LeftShoulder1  6.36111e-015 -1.33558e-015 6.49777e-015
LeftArm  26.9905 -10.9858 -44.6521
LeftForeArm  -31.999 -40.8414 14.0724
LeftHand  -3.72607 -9.87926 -11.7755
RightShoulder  -4.77083e-015 -6.36111e-015 -3.18055e-015
RightArm  37.8179 -13.2347 2.02125
RightForeArm  -65.3901 16.9635 -63.4029
RightHand  -1.97743 4.9969 13.3714
LeftUpLeg  10.8581 28.2372 0.210899
LeftLeg  -18.0865 -27.6151 -0.824184
LeftFoot  23.1753 18.326 -33.8552
LeftToes  1.27222e-014 1.09105e-011 6.96064e-012
304
root  26.4077 34.3145 -9.43159 157.76 4.90698 169.323
RightUpLeg  0.0717985 12.4937 3.9935
RightLeg  -46.8422 -2.4596 -12.3431
RightFoot  17.2584 0.908086 -9.03295
RightToes  -1.27222e-014 -6.36111e-015 6.36111e-015
Spine  -16.2935 -11.9393 -5.12602
Spine1  8.86801 -10.4775 28.2031
HEad  32.3032 -0.904223 -12.3899
LeftShoulder1  6.36111e-015 -1.33558e-015 6.49777e-015
LeftArm  22.2172 -12.5857 -41.3276
LeftForeArm  -23.308 -40.4606 10.855
LeftHand  -2.97368 -7.26202 -10.4479
RightShoulder  -4.77083e-015 -6.36111e-015 -3.18055e-015
RightArm  37.2964 -9.83633 -2.31448
RightForeArm  -55.7927 19.0732 -54.4449
RightHand  -1.62443 3.57827 10.5057
LeftUpLeg  8.08559 17.9876 -4.42515
LeftLeg  -23.6395 -13.723 -6.77218
LeftFoot  18.5708 13.4074 -27.5288
LeftToes  1.27222e-014 1.09105e-011 6.96064e-012
305
root  26.3158 33.6309 -8.83424 157.964 -2.79012 168.421
RightUpLeg  1.45665 18.0231 5.98792
RightLeg  -50.474 -12.7147 -3.33781
RightFoot  16.3902 6.7572 -18.4182
RightToes  -1.27222e-014 -6.36111e-015 6.36111e-015
Spine  -12.0489 -11.3088 -3.44476
Spine1  9.10847 -9.98664 25.5089
HEad  29.1219 -5.72364 -12.6318
LeftShoulder1  6.36111e-015 -1.33558e-015 6.49777e-015
LeftArm  17.0345 -15.2133 -37.0185
LeftForeArm  -12.9561 -39.9903 6.88739
LeftHand  -2.30348 -5.09104 -9.36516
RightShoulder  -4.77083e-015 -6.36111e-015 -3.18055e-015
RightArm  37.3665 -5.93306 -8.07112
RightForeArm  -43.1258 19.6697 -43.0964
RightHand  -1.05841 2.62426 5.7989
LeftUpLeg  3.27595 14.4355 -1.87906
LeftLeg  -25.0133 -6.41108 -9.55556
LeftFoot  17.6419 10.0442 -21.1994
LeftToes  1.27222e-014 1.09105e-011 6.96064e-012
306
root  26.2659 32.7349 -8.1975 159.416 -7.5647 166.907
RightUpLeg  -2.1608 19.1939 4.84849
RightLeg  -50.2355 -21.045 4.44737
RightFoot  14.9195 10.1787 -24.1677
RightToes  -1.27222e-014 -6.36111e-015 6.36111e-015
Spine  -8.43624 -10.6005 -2.05255
Spine1  9.64467 -8.98961 22.1346
HEad  25.2084 -9.51616 -13.0494
LeftShoulder1  6.36111e-015 -1.33558e-015 6.49777e-015
LeftArm  11.2701 -17.103 -31.2812
LeftForeArm  -3.37748 -36.9636 2.26417
LeftHand  -1.46365 -2.65624 -7.4637
RightShoulder  -4.77083e-015 -6.36111e-015 -3.18055e-015
RightArm  38.0737 -1.4481 -13.9292
RightForeArm  -28.9527 16.5494 -29.832
RightHand  -0.199705 1.56793 -0.581685
LeftUpLeg  -2.56973 13.0281 4.20375
LeftLeg  -25.3302 -1.9888 -11.5926
LeftFoot  17.8888 8.87895 -18.686
LeftToes  1.27222e-014 1.09105e-011 6.96064e-012
307
root  26.1334 32.0639 -7.55624 162.311 -10.1305 164.257
RightUpLeg  -9.66965 17.2219 -0.504769
RightLeg  -46.9534 -22.3746 4.69328
RightFoot  14.3999 11.4732 -26.45
RightToes  -1.27222e-014 -6.36111e-015 6.36111e-015
Spine  -6.07744 -10.4722 -1.36338
Spine1  10.2036 -8.4655 19.9892
HEad  20.5259 -10.5869 -14.1966
LeftShoulder1  6.36111e-015 -1.33558e-015 6.49777e-015
LeftArm  5.21034 -15.4096 -23.1177
LeftForeArm  2.55501 -30.9101 -1.04197
LeftHand  -0.395976 0.00178533 -4.75653
RightShoulder  -4.77083e-015 -6.36111e-015 -3.18055e-015
RightArm  39.0564 3.39073 -19.3724
RightForeArm  -16.7077 9.23886 -18.0391
RightHand  0.660025 0.552714 -5.9889
LeftUpLeg  -7.0901 11.7727 11.606
LeftLeg  -28.0955 0.222715 -12.9287
LeftFoot  18.3432 8.40764 -17.5382
LeftToes  1.27222e-014 1.09105e-011 6.96064e-012
